<?xml version="1.0" standalone="no"?>
<!DOCTYPE svg PUBLIC "-//W3C//DTD SVG 20010904//EN"
 "http://www.w3.org/TR/2001/REC-SVG-20010904/DTD/svg10.dtd">
<svg version="1.0" xmlns="http://www.w3.org/2000/svg"
 width="500.000000pt" height="500.000000pt" viewBox="0 0 500.000000 500.000000"
 preserveAspectRatio="xMidYMid meet">
<metadata>
Created by potrace 1.14, written by Peter Selinger 2001-2017
</metadata>
<g transform="translate(0.000000,500.000000) scale(0.100000,-0.100000)"
fill="#000000" stroke="none">
<path d="M1955 4570 c-227 -36 -422 -99 -605 -193 -198 -102 -335 -202 -494
-361 -209 -209 -353 -431 -460 -712 -34 -90 -81 -262 -91 -339 -4 -22 -8 -47
-10 -55 -17 -66 -24 -418 -11 -575 13 -165 70 -386 134 -525 69 -149 200 -311
313 -388 86 -58 227 -121 310 -137 132 -27 180 -32 296 -30 272 5 517 85 743
243 37 26 267 247 530 509 482 481 515 518 556 638 22 67 25 81 28 163 8 191
-74 374 -220 489 -52 41 -149 91 -199 104 -29 7 -47 19 -58 39 -24 40 -96 73
-143 66 -101 -16 -152 -94 -131 -198 20 -97 164 -141 244 -74 l28 24 64 -26
c192 -76 306 -313 247 -511 -32 -107 -48 -126 -524 -602 -369 -369 -484 -478
-546 -518 -213 -138 -409 -193 -661 -186 -191 5 -319 43 -450 136 -133 94
-257 265 -320 444 -9 28 -20 57 -23 65 -6 19 -7 21 -26 100 -8 36 -18 83 -22
105 -3 22 -8 51 -11 65 -13 67 -10 441 3 540 72 514 357 970 793 1262 88 59
168 102 336 178 59 26 229 75 338 96 139 27 440 38 542 20 17 -2 50 -8 75 -11
25 -4 81 -15 125 -25 659 -153 1180 -661 1348 -1315 14 -55 29 -120 32 -145 4
-25 9 -54 12 -65 3 -11 6 -103 8 -205 4 -203 -11 -335 -55 -500 -44 -166 -144
-388 -240 -535 -57 -86 -65 -125 -33 -156 16 -15 116 -68 548 -288 55 -28 96
-51 90 -52 -5 0 -19 -2 -30 -4 -11 -2 -54 -7 -95 -10 -41 -3 -95 -7 -120 -10
-42 -4 -101 -9 -247 -20 -86 -7 -179 -15 -233 -20 -25 -2 -79 -7 -120 -10 -41
-3 -95 -8 -120 -10 -25 -2 -79 -7 -120 -10 -41 -3 -100 -8 -130 -11 -36 -3
-92 -21 -165 -53 -150 -67 -322 -119 -445 -136 -157 -21 -270 -27 -270 -15 0
26 -48 108 -85 144 -62 60 -132 89 -224 89 -117 1 -211 -49 -270 -143 -73
-115 -72 -236 1 -352 57 -91 148 -139 266 -140 82 -1 122 11 187 55 46 31 111
117 120 157 6 29 9 30 58 30 53 1 72 3 212 21 106 14 334 70 400 100 179 78
204 87 280 93 44 4 100 9 125 11 25 2 77 7 115 10 39 4 95 8 125 10 30 2 84 7
120 10 36 4 86 8 111 10 121 9 198 16 239 20 25 3 74 7 110 10 36 3 90 7 120
10 30 3 83 7 118 10 269 21 284 23 309 47 23 22 28 45 17 84 -6 23 -14 27
-509 279 -170 87 -312 159 -314 161 -2 2 9 25 24 51 127 220 216 444 248 623
3 14 8 36 11 50 35 155 40 471 11 645 -76 445 -256 798 -556 1095 -141 140
-164 159 -302 251 -130 86 -276 161 -407 209 -103 37 -292 88 -363 96 -29 4
-74 10 -102 14 -93 15 -393 9 -510 -10z"/>
<path d="M1990 3472 c-19 -7 -43 -21 -53 -30 -10 -9 -39 -17 -65 -18 -167 -9
-291 -63 -402 -174 -184 -184 -225 -446 -108 -688 29 -59 70 -105 353 -389
176 -177 331 -327 345 -332 39 -15 59 -10 86 21 18 22 22 36 18 56 -4 18 -117
139 -319 342 -171 173 -321 331 -333 350 -101 171 -75 393 62 531 55 55 122
93 201 114 93 24 116 21 149 -21 46 -58 106 -73 177 -45 69 27 110 114 87 184
-28 83 -121 130 -198 99z"/>
</g>
</svg>
